HIERARCHY
ROOT hips
{
  OFFSET 0 10.6860622 2.3727825e-15
  CHANNELS 6 Xposition Yposition Zposition Yrotation Xrotation Zrotation
  JOINT leftUpperLeg
  {
    OFFSET 0.6642549969 -0.9402397400000004 0
    CHANNELS 3 Yrotation Xrotation Zrotation
    JOINT leftLowerLeg
    {
      OFFSET 0 -3.997221335632195 0
      CHANNELS 3 Yrotation Xrotation Zrotation
      JOINT leftFoot
      {
        OFFSET -0.13777839790000004 -4.6145792000000005 -0.22186036399999998
        CHANNELS 3 Yrotation Xrotation Zrotation
        JOINT leftToes
        {
          OFFSET -0.03777410834999995 -0.9130806927000008 0.85230013
          CHANNELS 3 Yrotation Xrotation Zrotation
          End Site
          {
            OFFSET -0.03777410834999995 -0.9130806927000008 0.85230013
          }
        }
      }
    }
  }
  JOINT rightUpperLeg
  {
    OFFSET -0.6642778626 -0.9402397400000004 0
    CHANNELS 3 Yrotation Xrotation Zrotation
    JOINT rightLowerLeg
    {
      OFFSET 0 -3.997221452859387 0
      CHANNELS 3 Yrotation Xrotation Zrotation
      JOINT rightFoot
      {
        OFFSET 0.1377926176 -4.6145792000000005 -0.22185782299999995
        CHANNELS 3 Yrotation Xrotation Zrotation
        JOINT rightToes
        {
          OFFSET 0.037780746850000047 -0.9130806927000008 0.85230167
          CHANNELS 3 Yrotation Xrotation Zrotation
          End Site
          {
            OFFSET 0.037780746850000047 -0.9130806927000008 0.85230167
          }
        }
      }
    }
  }
  JOINT spine
  {
    OFFSET 0 0.13988381660000015 0
    CHANNELS 3 Yrotation Xrotation Zrotation
    JOINT chest
    {
      OFFSET 0 0.6191039003973773 0
      CHANNELS 3 Yrotation Xrotation Zrotation
      JOINT upperChest
      {
        OFFSET 0 0.9855186130586943 0
        CHANNELS 3 Yrotation Xrotation Zrotation
        JOINT leftShoulder
        {
          OFFSET 0.1807663869 1.5087829790000005 0
          CHANNELS 3 Yrotation Xrotation Zrotation
          JOINT leftUpperArm
          {
            OFFSET 0.5985063006419806 0 0
            CHANNELS 3 Yrotation Xrotation Zrotation
            JOINT leftLowerArm
            {
              OFFSET 2.2993332369501065 0 0
              CHANNELS 3 Yrotation Xrotation Zrotation
              JOINT leftHand
              {
                OFFSET 2.395047042602395 0 0
                CHANNELS 3 Yrotation Xrotation Zrotation
                JOINT leftIndexProximal
                {
                  OFFSET 0.5766295810000004 0.04556643899499946 0.17265095988184
                  CHANNELS 3 Yrotation Xrotation Zrotation
                  JOINT leftIndexIntermediate
                  {
                    OFFSET 0.2957229000000008 -0.019352197700001517 -0.007932640616999987
                    CHANNELS 3 Yrotation Xrotation Zrotation
                    JOINT leftIndexDistal
                    {
                      OFFSET 0.19008243099999922 -0.012484908149998475 -0.002786250786000012
                      CHANNELS 3 Yrotation Xrotation Zrotation
                      End Site
                      {
                        OFFSET 0.19008243099999922 -0.012484908149998475 -0.002786250786000012
                      }
                    }
                  }
                }
                JOINT leftMiddleProximal
                {
                  OFFSET 0.5834975091000001 0.0524350405149987 0.02204081888183999
                  CHANNELS 3 Yrotation Xrotation Zrotation
                  JOINT leftMiddleIntermediate
                  {
                    OFFSET 0.33880573540000003 -0.019871473270000717 -0.00000971183179999946
                    CHANNELS 3 Yrotation Xrotation Zrotation
                    JOINT leftMiddleDistal
                    {
                      OFFSET 0.20676022730000088 -0.012221336379999448 0.0001471936708000235
                      CHANNELS 3 Yrotation Xrotation Zrotation
                      End Site
                      {
                        OFFSET 0.20676022730000088 -0.012221336379999448 0.0001471936708000235
                      }
                    }
                  }
                }
                JOINT leftLittleProximal
                {
                  OFFSET 0.5344154683999995 -0.012880921405001189 -0.24414037221816004
                  CHANNELS 3 Yrotation Xrotation Zrotation
                  JOINT leftLittleIntermediate
                  {
                    OFFSET 0.21758961730000093 -0.011650919939999227 0.011893592810000034
                    CHANNELS 3 Yrotation Xrotation Zrotation
                    JOINT leftLittleDistal
                    {
                      OFFSET 0.1475273964999999 -0.008152365682999818 0.006001092492999946
                      CHANNELS 3 Yrotation Xrotation Zrotation
                      End Site
                      {
                        OFFSET 0.1475273964999999 -0.008152365682999818 0.006001092492999946
                      }
                    }
                  }
                }
                JOINT leftRingProximal
                {
                  OFFSET 0.5799399463000003 0.026911854694997794 -0.12150566991816003
                  CHANNELS 3 Yrotation Xrotation Zrotation
                  JOINT leftRingIntermediate
                  {
                    OFFSET 0.26167887460000006 -0.013480186499999602 0.010996293000000053
                    CHANNELS 3 Yrotation Xrotation Zrotation
                    JOINT leftRingDistal
                    {
                      OFFSET 0.17667108799999987 -0.008990287899999228 0.0055541023999999065
                      CHANNELS 3 Yrotation Xrotation Zrotation
                      End Site
                      {
                        OFFSET 0.17667108799999987 -0.008990287899999228 0.0055541023999999065
                      }
                    }
                  }
                }
                JOINT leftThumbProximal
                {
                  OFFSET 0.11018806699999972 -0.09448718900500053 0.17047963138184
                  CHANNELS 3 Yrotation Xrotation Zrotation
                  JOINT leftThumbIntermediate
                  {
                    OFFSET 0.31062601459999983 -0.08126270900000132 0.15443142000000007
                    CHANNELS 3 Yrotation Xrotation Zrotation
                    JOINT leftThumbDistal
                    {
                      OFFSET 0.21627175790000086 -0.08833193599999878 0.018771167799999988
                      CHANNELS 3 Yrotation Xrotation Zrotation
                      End Site
                      {
                        OFFSET 0.21627175790000086 -0.08833193599999878 0.018771167799999988
                      }
                    }
                  }
                }
              }
            }
          }
        }
        JOINT neck
        {
          OFFSET 0 1.5463305265074576 0
          CHANNELS 3 Yrotation Xrotation Zrotation
          JOINT head
          {
            OFFSET 0 0.8456443600000344 0
            CHANNELS 3 Yrotation Xrotation Zrotation
            JOINT leftEye
            {
              OFFSET 0.30408573140000006 0.5104519199999995 0.1276382305
              CHANNELS 3 Yrotation Xrotation Zrotation
              End Site
              {
                OFFSET 0.30408573140000006 0.5104519199999995 0.1276382305
              }
            }
            JOINT rightEye
            {
              OFFSET -0.30409491089999996 0.5104519199999995 0.1276379445
              CHANNELS 3 Yrotation Xrotation Zrotation
              End Site
              {
                OFFSET -0.30409491089999996 0.5104519199999995 0.1276379445
              }
            }
            JOINT jaw
            {
              OFFSET -3.155239131000001e-7 -0.11984121820000082 0.60178107
              CHANNELS 3 Yrotation Xrotation Zrotation
              End Site
              {
                OFFSET -3.155239131000001e-7 -0.11984121820000082 0.60178107
              }
            }
          }
        }
        JOINT rightShoulder
        {
          OFFSET -0.1807303465 1.5087829790000005 0
          CHANNELS 3 Yrotation Xrotation Zrotation
          JOINT rightUpperArm
          {
            OFFSET -0.5985063796536958 0 0
            CHANNELS 3 Yrotation Xrotation Zrotation
            JOINT rightLowerArm
            {
              OFFSET -2.2993322059002854 0 0
              CHANNELS 3 Yrotation Xrotation Zrotation
              JOINT rightHand
              {
                OFFSET -2.395045314457259 0 0
                CHANNELS 3 Yrotation Xrotation Zrotation
                JOINT rightIndexProximal
                {
                  OFFSET -0.5764487688300002 0.0441371204405987 0.17361932004999997
                  CHANNELS 3 Yrotation Xrotation Zrotation
                  JOINT rightIndexIntermediate
                  {
                    OFFSET -0.29573011380000047 -0.01934826376999843 -0.007698921482999974
                    CHANNELS 3 Yrotation Xrotation Zrotation
                    JOINT rightIndexDistal
                    {
                      OFFSET -0.19008373999999884 -0.012503266380000655 -0.0026365778999999897
                      CHANNELS 3 Yrotation Xrotation Zrotation
                      End Site
                      {
                        OFFSET -0.19008373999999884 -0.012503266380000655 -0.0026365778999999897
                      }
                    }
                  }
                }
                JOINT rightMiddleProximal
                {
                  OFFSET -0.5834852037300005 0.05211639405060153 0.02307162440000001
                  CHANNELS 3 Yrotation Xrotation Zrotation
                  JOINT rightMiddleIntermediate
                  {
                    OFFSET -0.33880114510000003 -0.019952774050000954 0.0002455003561999819
                    CHANNELS 3 Yrotation Xrotation Zrotation
                    JOINT rightMiddleDistal
                    {
                      OFFSET -0.20675694929999955 -0.012273788999999091 0.00030209124000002766
                      CHANNELS 3 Yrotation Xrotation Zrotation
                      End Site
                      {
                        OFFSET -0.20675694929999955 -0.012273788999999091 0.00030209124000002766
                      }
                    }
                  }
                }
                JOINT rightLittleProximal
                {
                  OFFSET -0.5346811737299992 -0.011214256288399227 -0.24363941305000003
                  CHANNELS 3 Yrotation Xrotation Zrotation
                  JOINT rightLittleIntermediate
                  {
                    OFFSET -0.21757715980000092 -0.011771559690000988 0.01201554387
                    CHANNELS 3 Yrotation Xrotation Zrotation
                    JOINT rightLittleDistal
                    {
                      OFFSET -0.1475201849000004 -0.00822055339600003 0.006082065407000015
                      CHANNELS 3 Yrotation Xrotation Zrotation
                      End Site
                      {
                        OFFSET -0.1475201849000004 -0.00822055339600003 0.006082065407000015
                      }
                    }
                  }
                }
                JOINT rightRingProximal
                {
                  OFFSET -0.5800810755299999 0.027657985680600072 -0.12066365025000003
                  CHANNELS 3 Yrotation Xrotation Zrotation
                  JOINT rightRingIntermediate
                  {
                    OFFSET -0.26166445029999974 -0.013623118409999302 0.011164098990000045
                    CHANNELS 3 Yrotation Xrotation Zrotation
                    JOINT rightRingDistal
                    {
                      OFFSET -0.17666387530000027 -0.009072900100000503 0.005668185599999959
                      CHANNELS 3 Yrotation Xrotation Zrotation
                      End Site
                      {
                        OFFSET -0.17666387530000027 -0.009072900100000503 0.005668185599999959
                      }
                    }
                  }
                }
                JOINT rightThumbProximal
                {
                  OFFSET -0.10997596379000074 -0.09577489355940072 0.16989765924999997
                  CHANNELS 3 Yrotation Xrotation Zrotation
                  JOINT rightThumbIntermediate
                  {
                    OFFSET -0.31036620999999986 -0.08229339117999834 0.15440884469999996
                    CHANNELS 3 Yrotation Xrotation Zrotation
                    JOINT rightThumbDistal
                    {
                      OFFSET -0.21631306399999906 -0.08825326400000111 0.018656797720000014
                      CHANNELS 3 Yrotation Xrotation Zrotation
                      End Site
                      {
                        OFFSET -0.21631306399999906 -0.08825326400000111 0.018656797720000014
                      }
                    }
                  }
                }
              }
            }
          }
        }
      }
    }
  }
}
MOTION
Frames: 11
Frame Time: 0.03333333333333333
0 11.682712981546562 0 0 0 0 0 0 -5.826343164929014 -0.3712483961610101 -3.6333298826370974 5.838118207697276 0 0 0 0 0 0 0 0 5.826343164929014 0.3712483961610101 -3.6333298826370974 -5.838118207697276 0 0 0 0 0 0 0 -4.610651315171937 0 0 3.0831277533083026 0 0 0 0 0 1.5275236235667615 0 0 0 0 0 0 0 0 0 0 0 0 0 0 0 0 0 0 0 0 0 0 0 0 0 0 0 0 0 0 0 0 0 0 0 0 0 0 0 0 0 0 0 0 0 0 0 0 0 0 0 0 0 0 0 0 1.5275236235667615 0 0 0 0 0 0 0 0 0 0 0 0 0 0 1.5275236235667615 0 0 0 0 0 0 0 0 0 0 0 0 0 0 0 0 0 0 0 0 0 0 0 0 0 0 0 0 0 0 0 0 0 0 0 0 0 0 0 0 0 0 0 0 0 0 0 0 0 0 0 0 0 0 0
0 3.8938182528595595 0 0 -29.667414057783734 0 0 0 -9.494036162554906 -0.3712483961610101 -3.6333298826370974 5.838118207697276 0 6.998928474939927 0 0 0 0 0.018895934186395267 -1.6671154637392607 6.491392271901774 0.46807466064025344 -3.623449846186283 -5.838046077330637 -0.5538557378706684 10.327694365000394 2.8832415327727015 0 0 0 -0.015467134780854729 -4.610648317262805 -0.031733387641037156 0 3.0831277533083026 0 0 0 0 0 1.5275236235667615 0 -3.551870567090766 -19.744578081431523 5.198074164510622 -13.500663188078471 -6.993921804528377 0.0793104195952469 0 0 4.999392073463701 0 0 0 0 0 0 0 0 0 0 0 0 0 0 0 0 0 0 0 0 0 0 0 0 0 0 0 0 0 0 0 0 0 0 0 0 0 0 0 0 0 0 0 0 0 0 7.193195671463636 0 0 -0.33397767780322596 0 0 0 0 0 0 0 0 0 0 10.003054582114117 1.504313667793353 0.2653014246348822 7.427396027909367 -19.68951727770763 -18.02979252248095 43.51949060898973 -7.299838576736825 4.274334183195763 0 0 0 0 0 0 0 0 0 0 0 0 0 0 0 0 0 0 0 0 0 0 0 0 0 0 0 0 0 0 0 0 0 0 0 0 0 0 0 0 0 0 0 0 0 0 0 0
0 -3.8950764758274428 0 0 -59.33482619722978 0 0 0 -13.161729988448512 -0.3712483961610101 -3.6333298826370974 5.838118207697276 0 13.997856907784064 0 0 0 0 0.018434279194725525 -3.334337862507649 7.156736392811959 0.564899914969386 -3.613569489885169 -5.837956579727317 -0.5832491185947821 20.670028995334924 5.808648983719366 0 0 0 -0.012531440774631608 -4.610650458626469 -0.0682541774417683 0 3.0831277533083026 0 0 0 0 0 1.5275236235667615 0 -10.102016157154301 -38.97944097436217 13.037988270657943 -27.313538754985167 -13.771944141855474 1.8353318981016236 0 0 9.998783869064683 0 0 0 0 0 0 0 0 0 0 0 0 0 0 0 0 0 0 0 0 0 0 0 0 0 0 0 0 0 0 0 0 0 0 0 0 0 0 0 0 0 0 0 0 0 0 12.85886709314414 0 0 -0.6679553373265479 0 0 0 0 0 0 0 0 0 0 20.005690720691437 1.4353905981912418 0.5225317476561699 23.107203783391764 -35.50263474705745 -42.138009538598084 87.71153659649931 -15.5195107200286 2.258877160117994 0 0 0 0 0 0 0 0 0 0 0 0 0 0 0 0 0 0 0 0 0 0 0 0 0 0 0 0 0 0 0 0 0 0 0 0 0 0 0 0 0 0 0 0 0 0 0 0
0 -11.683971204514444 0 0 -89.00220408007306 0 0 0 -16.829422357505905 -0.3712483961610101 -3.6333298826370974 5.838118207697276 0 20.996786438572162 0 0 0 0 -0.0014596739657100296 -5.001442488318999 7.823506328988878 0.6617240958902402 -3.603689241182995 -5.837850411564274 -0.0028407303355420296 30.99926280915116 8.995904483722144 0 0 0 0.008037418668062995 -4.6106444628082235 -0.0999875657038285 0 3.0831277533083026 0 0 0 0 0 1.5275236235667615 0 -24.15271167127534 -56.77687057158249 28.1894839525473 -41.82013881995848 -19.92270237592813 5.3169149735534145 0 0 14.998175999296318 0 0 0 0 0 0 0 0 0 0 0 0 0 0 0 0 0 0 0 0 0 0 0 0 0 0 0 0 0 0 0 0 0 0 0 0 0 0 0 0 0 0 0 0 0 0 18.524539344091234 0 0 -1.0019329865827376 0 0 0 0 0 0 0 0 0 0 30.007534815856737 1.322852171915707 0.7638678754587461 48.63234259184645 -42.77425927435638 -75.18247731369738 133.81553111070863 -19.920989667402125 -5.320580923388272 0 0 0 0 0 0 0 0 0 0 0 0 0 0 0 0 0 0 0 0 0 0 0 0 0 0 0 0 0 0 0 0 0 0 0 0 0 0 0 0 0 0 0 0 0 0 0 0
0 -11.683971204514444 0 0 -89.00220408007306 0 0 0 -16.829422357505905 -0.47047108538175664 -3.6232051778512857 5.838043911464559 0 20.996786438572162 0 0 0 0 -0.0014596739657100296 -5.001442488318999 7.823506328988878 0.7589995437493449 -3.5937629051653404 -5.837727302788851 0.008653937770667225 31.12499338746962 8.942714004208963 0 0 0 0.008010080313370476 -4.6106444628082235 -0.09964746414002171 0 3.0831277533083026 0 0 0 0 0 1.5275236235667615 0 -23.885367624946305 -56.85477109164771 27.870062650738667 -41.70058426056044 -19.92270600841556 5.316922207269826 0 0 14.998175999296318 0 0 0 0 0 0 0 0 0 0 0 0 0 0 0 0 0 0 0 0 0 0 0 0 0 0 0 0 0 0 0 0 0 0 0 0 0 0 0 0 0 0 0 0 0 0 18.524539344091234 0 0.16514500468455118 -1.047478743629294 -0.01306814732322285 0 0 0 0 0 0 0 0 0 30.007534815856737 1.322852171915707 0.7638678754587461 48.63234259184645 -42.77425927435638 -75.18247731369738 133.81553111070863 -19.920989667402125 -5.320580923388272 0 0 0 0 0 0 0 0 0 0 0 0 0 0 0 0 0 0 0 0 0 0 0 0 0 0 0 0 0 0 0 0 0 0 0 0 0 0 0 0 0 0 0 0 0 0 0 0
0 -11.683971204514444 0 0 -89.00220408007306 0 0 0 -16.829422357505905 -0.569692697456306 -3.6130801586172714 5.83795174511886 0 20.996786438572162 0 0 0 0 -0.0014596739657100296 -5.001442488318999 7.823506328988878 0.8562738697033185 -3.5838371048768516 -5.837587176486376 0.02002734812644656 31.25073499426176 8.889481520085727 0 0 0 0.007982741122204135 -4.6106444628082235 -0.0993073625691928 0 3.0831277533083026 0 0 0 0 0 1.5275236235667615 0 -23.616674957402644 -56.9318514803058 27.549314699894563 -41.581030893666174 -19.922707824659305 5.316930229697074 0 0 14.998175999296318 0 0 0 0 0 0 0 0 0 0 0 0 0 0 0 0 0 0 0 0 0 0 0 0 0 0 0 0 0 0 0 0 0 0 0 0 0 0 0 0 0 0 0 0 0 0 18.524539344091234 0 0.33030284798285986 -1.0929865223764503 -0.02626773588909555 0 0 0 0 0 0 0 0 0 30.007534815856737 1.322852171915707 0.7638678754587461 48.63234259184645 -42.77425927435638 -75.18247731369738 133.81553111070863 -19.920989667402125 -5.320580923388272 0 0 0 0 0 0 0 0 0 0 0 0 0 0 0 0 0 0 0 0 0 0 0 0 0 0 0 0 0 0 0 0 0 0 0 0 0 0 0 0 0 0 0 0 0 0 0 0
0 -11.683971204514444 0 0 -89.00220408007306 0 0 0 -16.829422357505905 -0.6689131745506294 -3.602955680093894 5.837841709250835 0 20.996786438572162 0 0 0 0 -0.0014596739657100296 -5.001442488318999 7.823506328988878 0.9535472496330868 -3.573911626142864 -5.837429685185181 0.031279116349427004 31.376484280346098 8.836209244962987 0 0 0 0.007955402767504336 -4.6106444628082235 -0.0989672609913657 0 3.0831277533083026 0 0 0 0 0 1.5275236235667615 0 -23.346642864422595 -57.00811305740009 27.227245421747934 -41.46147789671204 -19.92271145714686 5.316937463413588 0 0 14.998175999296318 0 0 0 0 0 0 0 0 0 0 0 0 0 0 0 0 0 0 0 0 0 0 0 0 0 0 0 0 0 0 0 0 0 0 0 0 0 0 0 0 0 0 0 0 0 0 18.524539344091234 0 0.4954737485828843 -1.1384562431001128 -0.03959867835429196 0 0 0 0 0 0 0 0 0 30.007534815856737 1.322852171915707 0.7638678754587461 48.63234259184645 -42.77425927435638 -75.18247731369738 133.81553111070863 -19.920989667402125 -5.320580923388272 0 0 0 0 0 0 0 0 0 0 0 0 0 0 0 0 0 0 0 0 0 0 0 0 0 0 0 0 0 0 0 0 0 0 0 0 0 0 0 0 0 0 0 0 0 0 0 0
0 -11.683971204514444 0 0 -89.00220408007306 0 0 0 -16.829422357505905 -0.7681654346530268 -3.5928278923995602 5.837714655466233 0 20.996786438572162 0 0 0 0 -0.0014596739657100296 -5.001442488318999 7.823506328988878 1.0508501243852901 -3.563983260799908 -5.8372559509601745 0.04241613382988238 31.502325997203453 8.782858511508563 0 0 0 0.007928064412800912 -4.6106444628082235 -0.09862716020059677 0 3.0831277533083026 0 0 0 0 0 1.5275236235667615 0 -23.074949063567207 -57.083632612777826 26.903472106694238 -41.341878592262 -19.922716905878353 5.316945937949214 0 0 14.998175999296318 0 0 0 0 0 0 0 0 0 0 0 0 0 0 0 0 0 0 0 0 0 0 0 0 0 0 0 0 0 0 0 0 0 0 0 0 0 0 0 0 0 0 0 0 0 0 18.524539344091234 0 0.6608195786348017 -1.183931484426081 -0.05307404761036763 0 0 0 0 0 0 0 0 0 30.007534815856737 1.322852171915707 0.7638678754587461 48.63234259184645 -42.77425927435638 -75.18247731369738 133.81553111070863 -19.920989667402125 -5.320580923388272 0 0 0 0 0 0 0 0 0 0 0 0 0 0 0 0 0 0 0 0 0 0 0 0 0 0 0 0 0 0 0 0 0 0 0 0 0 0 0 0 0 0 0 0 0 0 0 0
0 -11.683971204514444 0 0 -89.00220408007306 0 0 0 -16.829422357505905 -0.8674166605198037 -3.5827002171101325 5.837569733311842 0 20.996786438572162 0 0 0 0 -0.0014596739657100296 -5.001442488318999 7.823506328988878 1.1481520071462874 -3.5540550026093376 -5.837064775323453 0.053430573223657934 31.62817288799164 8.729464802600553 0 0 0 0.007900725221623705 -4.6106444628082235 -0.09828705862918276 0 3.0831277533083026 0 0 0 0 0 1.5275236235667615 0 -22.801919497275545 -57.158323874553375 26.57838444568856 -41.22227620128701 -19.922724170853964 5.316954412485685 0 0 14.99817764867445 0 0 0 0 0 0 0 0 0 0 0 0 0 0 0 0 0 0 0 0 0 0 0 0 0 0 0 0 0 0 0 0 0 0 0 0 0 0 0 0 0 0 0 0 0 0 18.524539344091234 0 0.8261789716762523 -1.229367762070728 -0.0666808508604807 0 0 0 0 0 0 0 0 0 30.007534815856737 1.322852171915707 0.7638678754587461 48.63234259184645 -42.77425927435638 -75.18247731369738 133.81553111070863 -19.920989667402125 -5.320580923388272 0 0 0 0 0 0 0 0 0 0 0 0 0 0 0 0 0 0 0 0 0 0 0 0 0 0 0 0 0 0 0 0 0 0 0 0 0 0 0 0 0 0 0 0 0 0 0 0
0 -11.683971204514444 0 0 -89.00220408007306 0 0 0 -16.829422357505905 -0.9666667849525886 -3.5725728677644546 5.837407716879515 0 20.996788267563534 0 0 0 0 -0.0014596739657100296 -5.001442488318999 7.823506328988878 1.2454527389232921 -3.5441272789744 -5.836857435282555 0.06432203152743647 31.754029598332682 8.676026872759202 0 0 0 0.007873386866913074 -4.6106444628082235 -0.09794695705084248 0 3.0831277533083026 0 0 0 0 0 1.5275236235667615 0 -22.527562910808054 -57.23216301431302 26.25198871901687 -41.10267771718527 -19.92272961958589 5.316962887023001 0 0 14.99817764867445 0 0 0 0 0 0 0 0 0 0 0 0 0 0 0 0 0 0 0 0 0 0 0 0 0 0 0 0 0 0 0 0 0 0 0 0 0 0 0 0 0 0 0 0 0 0 18.524539344091234 0 0.991551919757334 -1.274764568915141 -0.0804189945164356 0 0 0 0 0 0 0 0 0 30.007534815856737 1.322852171915707 0.7638678754587461 48.63234259184645 -42.77425462186122 -75.18247618925301 133.81553111070863 -19.920989667402125 -5.320580923388272 0 0 0 0 0 0 0 0 0 0 0 0 0 0 0 0 0 0 0 0 0 0 0 0 0 0 0 0 0 0 0 0 0 0 0 0 0 0 0 0 0 0 0 0 0 0 0 0
0 -11.683971204514444 0 0 -89.00220408007306 0 0 0 -16.829422357505905 -1.0659465809570918 -3.5624428500421805 5.837227485199978 0 20.996786438572162 0 0 0 0 -0.0014596739657100296 -5.001442488318999 7.823506328988878 1.3427820718366439 -3.534196881828074 -5.836632654891156 0.07509665324702615 31.879973189993027 8.622511573908847 0 0 0 0.007846047675728683 -4.610644891080954 -0.09760686215735163 0 3.0831277533083026 0 0 0 0 0 1.5275236235667615 0 -22.25155421655038 -57.305239863645454 25.923898581104567 -40.983018724558505 -19.92273506831801 5.316971813668506 0 0 14.99817764867445 0 0 0 0 0 0 0 0 0 0 0 0 0 0 0 0 0 0 0 0 0 0 0 0 0 0 0 0 0 0 0 0 0 0 0 0 0 0 0 0 0 0 0 0 0 0 18.524539344091234 0 1.157094984316254 -1.3201642044245105 -0.09430170119492984 0 0 0 0 0 0 0 0 0 30.007534815856737 1.322852171915707 0.7638678754587461 48.63234259184645 -42.77425462186122 -75.18247731369738 133.81553111070863 -19.920989667402125 -5.320580923388272 0 0 0 0 0 0 0 0 0 0 0 0 0 0 0 0 0 0 0 0 0 0 0 0 0 0 0 0 0 0 0 0 0 0 0 0 0 0 0 0 0 0 0 0 0 0 0 0
